# xmcd
#
# Track frame offsets:
#	150
#	9520
#	22425
#	33487
#	45322
#	56770
#	75325
#	85420
#	96945
#	108350
#	126145
#	134772
#
# Disc length: 1968 seconds
#
# Revision: 0
# Processed by: cddbd v1.5.1PL0 Copyright (c) Steve Scherf et al.
# Submitted via: audiograbber 1.83.01
#
DISCID=9d07ae0c
DTITLE=David Grisman, Vince Gill, Herb Pedersen, Jim Buchanan, Emory Gordy, Jr.
DTITLE=Various Artist - Here Today
DYEAR=1992
DGENRE=Bluegrass
TTITLE0=I'll Love Nobody But You
TTITLE1=Once More
TTITLE2=Foggy Mountain Chimes
TTITLE3=The Children Are Crying
TTITLE4=Hot Corn, Cold Corn
TTITLE5=Lonesome River
TTITLE6=My Walking Shoes
TTITLE7=Love And Wealth
TTITLE8=Billy In The Lowground
TTITLE9=Making Plans
TTITLE10=Sweet Little Miss Blue Eyes
TTITLE11=Going Up Home To Live In Green Pastures
EXTD=
EXTT0=
EXTT1=
EXTT2=
EXTT3=
EXTT4=
EXTT5=
EXTT6=
EXTT7=
EXTT8=
EXTT9=
EXTT10=
EXTT11=
PLAYORDER=
